# xmcd
#
# Track frame offsets:
#	150
#	18095
#	32152
#	48640
#	61865
#	74692
#	89237
#	109515
#	125552
#	143145
#	155352
#	168475
#	182542
#	197142
#	210865
#	227147
#	240695
#	253752
#	265637
#	283817
#	295452
#	306005
#
# Disc length: 4318 seconds
#
# Revision: 1
# Processed by: cddbd v1.5.2PL0 Copyright (c) Steve Scherf et al.
# Submitted via: EasyCDDAExtractor 16.0.8.2
#
DISCID=4610dc16
DTITLE=Νταλάρας Γιώργος - Τα χρώματα του χρόνου 1-2
DYEAR=2015
DGENRE=Έντεχνη λαϊκή
TTITLE0=Νύχτωσε χωρίς φεγγάρι [Απ. Καλδάρας]
TTITLE1=Η φαντασία [Α. Καλδάρας-Ε. Παπαγιαννοπούλου]
TTITLE2=Αχ ο μπαγλαμάς [Α. Καλδάρας-Λ. Παπαδόπουλος]
TTITLE3=Το πουκάμισο το θαλασσί [Σ. Κουγιουμτζής-Ά. Δασκαλόπουλος]
TTITLE4=Ο ουρανός φεύγει βαρύς [Σ. Κουγιουμτζής]
TTITLE5=Το πρώτο περιστέρι [Σ. Κουγιουμτζής-Γ. Θέμελης]
TTITLE6=Κόκκινο τριαντάφυλλο [Μ. Θεοδωράκης]
TTITLE7=Πρώτη του Δεκέμβρη [Γ. Σπανός-Μ. Ελευθερίου]
TTITLE8=Κάτω απ' την κληματαριά [Αντ. Βαρδής-Ανδ. Αγγελάκης]
TTITLE9=Ο μέτοικος [Georges Moustaki, απ. Δημ. Χριστοδούλου]
TTITLE10=Τώρα που θα φύγεις [Σ. Κουγιουμτζής-Μ. Ελευθερίου]
TTITLE11=Χάντρα στο κομπολόϊ σου [Σ. Κουγιουμτζής-Ά. Δασκαλόπουλος]
TTITLE12=Για πάρε γύφτο σφυρί κι αμόνι [Α. Καλδάρας-Λ. Παπαδόπουλος]
TTITLE13=Τι σού λέει η μάννα σου για μένα [Κ. Σκαρβέλης]
TTITLE14=Παραπονιάρικό μου [Απ. Χατζηχρήστος-ίδ. κ Γ. Λελάκης]
TTITLE15=Άλλα μού λέν' τα μάτια σου [Θ. Δερβενιώτης-Κ. Μάνεσης]
TTITLE16=Εγώ ποτέ δεν αγαπώ [Α. Καλδάρας-Κ. Βίρβος]
TTITLE17=Η Μπαρμπαριά (Ένα τραγ. απ' τ' Αλγέρι)[Α. Καλδάρας]
TTITLE18=Το γράμμα [Γ. Ζαμπέτας-Γ. Μητσάκης]
TTITLE19=Η φωνή του αργιλέ [Βαγγ. Παπάζογλου]
TTITLE20=Τώρα κλαις [Απ. Καλδάρας]
TTITLE21=Ήρθα κι απόψε στα σκαλοπάτια σου [Γ. Ζαμπέτας-Χαρ. Βασιλειάδης]
EXTD=YEAR: 1999\n
EXTT0=
EXTT1=
EXTT2=
EXTT3=
EXTT4=
EXTT5=
EXTT6=
EXTT7=
EXTT8=
EXTT9=
EXTT10=
EXTT11=
EXTT12=
EXTT13=
EXTT14=
EXTT15=
EXTT16=
EXTT17=
EXTT18=
EXTT19=
EXTT20=
EXTT21=
PLAYORDER=
